<svg xmlns="http://www.w3.org/2000/svg" viewBox="0 0 160 160"><path d="M139.9 64.4c-.4-2-.9-4-1.5-6-.6-1.9-1.3-3.9-2.1-5.7-.8-1.9-1.7-3.7-2.6-5.5-1-1.8-2-3.5-3.1-5.2-1.1-1.7-2.3-3.3-3.6-4.8-1.3-1.5-2.6-3-4-4.4-1.4-1.4-2.9-2.8-4.4-4-1.5-1.3-3.2-2.5-4.8-3.6-1.7-1.1-3.4-2.2-5.1-3.1-1.8-1-3.6-1.8-5.5-2.6s-3.8-1.5-5.7-2.1c-2-.6-4-1.1-6-1.5-2-.4-4.1-.7-6.2-.9-4.2-.4-8.6-.4-12.8 0-2.1.2-4.2.5-6.2.9s-4 .9-6 1.5c-1.9.6-3.9 1.3-5.7 2.1-.8.3-1.1 1.2-.8 2 .3.8 1.2 1.1 2 .8 1.8-.8 3.6-1.4 5.5-2 1.9-.6 3.8-1.1 5.7-1.5 1.9-.4 3.9-.7 5.9-.9 4-.4 8.2-.4 12.2 0 2 .2 4 .5 5.9.9 1.9.4 3.8.9 5.7 1.5 1.8.6 3.7 1.2 5.5 2 1.8.7 3.5 1.6 5.2 2.5 1.7.9 3.3 1.9 4.9 3 1.6 1.1 3.1 2.2 4.6 3.4 1.5 1.2 2.9 2.5 4.2 3.8 1.3 1.3 2.6 2.8 3.8 4.2 1.2 1.5 2.4 3 3.4 4.6 1.1 1.6 2.1 3.2 3 4.9.9 1.7 1.8 3.4 2.5 5.2.8 1.8 1.4 3.6 2 5.5.6 1.9 1.1 3.8 1.5 5.7.4 1.9.7 3.9.9 5.9a62.28 62.28 0 0 1 0 12.2c-.2 2-.5 4-.9 5.9-.4 1.9-.9 3.8-1.5 5.7-.6 1.8-1.2 3.7-2 5.5-.7 1.8-1.6 3.5-2.5 5.2-.9 1.7-1.9 3.3-3 4.9-1.1 1.6-2.2 3.1-3.4 4.6-1.2 1.5-2.5 2.9-3.8 4.2-.6.6-.6 1.5 0 2.1.3.3.7.4 1.1.4s.8-.1 1.1-.4c1.4-1.4 2.8-2.9 4-4.4 1.3-1.5 2.5-3.2 3.6-4.8 1.1-1.7 2.2-3.4 3.1-5.2 1-1.8 1.8-3.6 2.6-5.5s1.5-3.8 2.1-5.7c.6-2 1.1-4 1.5-6 .4-2 .7-4.1.9-6.2a68.53 68.53 0 0 0 0-12.8c-.4-2.2-.8-4.3-1.2-6.3zM40 31.4c.3 0 .7-.1 1-.3 1.5-1.2 3-2.4 4.6-3.4.7-.5.9-1.4.4-2.1-.5-.7-1.4-.9-2.1-.4-1.7 1.1-3.3 2.3-4.8 3.6-.6.5-.7 1.5-.2 2.1.2.3.6.5 1.1.5zM17.5 89.6c.4 2 .9 4 1.5 6 .6 1.9 1.3 3.9 2.1 5.7.8 1.9 1.7 3.7 2.6 5.5 1 1.8 2 3.5 3.1 5.2 1.1 1.7 2.3 3.3 3.6 4.8 1.3 1.5 2.6 3 4 4.4.3.3.7.4 1.1.4.4 0 .8-.1 1.1-.4.6-.6.6-1.5 0-2.1-1.3-1.3-2.6-2.8-3.8-4.2-1.2-1.5-2.4-3-3.4-4.6-1.1-1.6-2.1-3.2-3-4.9-.9-1.7-1.8-3.4-2.5-5.2-.8-1.8-1.4-3.6-2-5.5-.6-1.9-1.1-3.8-1.5-5.7-.4-1.9-.7-3.9-.9-5.9a62.28 62.28 0 0 1 0-12.2c.2-2 .5-4 .9-5.9.4-1.9.9-3.8 1.5-5.7.6-1.8 1.2-3.7 2-5.5.7-1.8 1.6-3.5 2.5-5.2.9-1.7 1.9-3.3 3-4.9 1.1-1.6 2.2-3.1 3.4-4.6.5-.6.4-1.6-.2-2.1-.6-.5-1.6-.4-2.1.2-1.3 1.5-2.5 3.2-3.6 4.8-1.1 1.7-2.2 3.4-3.1 5.2-1 1.8-1.8 3.6-2.6 5.5s-1.5 3.8-2.1 5.7c-.6 2-1.1 4-1.5 6-.4 2-.7 4.1-.9 6.2a68.53 68.53 0 0 0 0 12.8c.1 2 .4 4.1.8 6.2zM138.3 136.4h-18.5c-.4-4.2-3.9-7.4-8.2-7.4H98.9c-2.7 0-4.9-2.2-4.9-4.9v-10c0-.8-.7-1.5-1.5-1.5s-1.5.7-1.5 1.5v10c0 4.4 3.5 7.9 7.9 7.9h12.7c2.9 0 5.2 2.4 5.2 5.2s-2.4 5.2-5.2 5.2H45.8c-2.9 0-5.2-2.4-5.2-5.2s2.4-5.2 5.2-5.2h12.7c4.4 0 7.9-3.5 7.9-7.9v-10c0-.8-.7-1.5-1.5-1.5s-1.5.7-1.5 1.5v10c0 2.7-2.2 4.9-4.9 4.9H45.8c-4.3 0-7.8 3.3-8.2 7.4H7c-.8 0-1.5.7-1.5 1.5s.7 1.5 1.5 1.5h30.9c1 3.5 4.2 6.1 7.9 6.1h65.8c3.8 0 7-2.6 7.9-6.1h18.8c.8 0 1.5-.7 1.5-1.5s-.6-1.5-1.5-1.5z"/><path d="M78.7 132c4.4 0 7.9-3.5 7.9-7.9v-10c0-.8-.7-1.5-1.5-1.5s-1.5.7-1.5 1.5v10c0 2.7-2.2 4.9-4.9 4.9s-4.9-2.2-4.9-4.9v-10c0-.8-.7-1.5-1.5-1.5s-1.5.7-1.5 1.5v10c0 4.4 3.6 7.9 7.9 7.9zM153 136.4h-6.6c-.8 0-1.5.7-1.5 1.5s.7 1.5 1.5 1.5h6.6c.8 0 1.5-.7 1.5-1.5s-.7-1.5-1.5-1.5zM50.8 105.1c0-.8-.7-1.5-1.5-1.5s-1.5.7-1.5 1.5v7.6c0 .8.7 1.5 1.5 1.5s1.5-.7 1.5-1.5v-7.6zM49.3 118.6c-.8 0-1.5.7-1.5 1.5v2.7c0 .8.7 1.5 1.5 1.5s1.5-.7 1.5-1.5v-2.7c0-.9-.7-1.5-1.5-1.5zM109.7 105.1c0-.8-.7-1.5-1.5-1.5s-1.5.7-1.5 1.5v7.6c0 .8.7 1.5 1.5 1.5s1.5-.7 1.5-1.5v-7.6zM108.2 118.6c-.8 0-1.5.7-1.5 1.5v2.7c0 .8.7 1.5 1.5 1.5s1.5-.7 1.5-1.5v-2.7c0-.9-.7-1.5-1.5-1.5zM52.4 99.1h11v7c0 .8.7 1.5 1.5 1.5h7.4c.8 0 1.5-.7 1.5-1.5v-7h9.8v7c0 .8.7 1.5 1.5 1.5h7.4c.8 0 1.5-.7 1.5-1.5v-7h11c1.7 0 3.3-.9 4.1-2.4.8-1.5.8-3.3-.2-4.7-5.3-8.2-14.6-23.1-18.1-30-.9-1.7-1.3-3.6-1.3-5.6V44.9c0-3-.8-6-2.4-8.5L82.7 29c-.8-1.4-2.3-2.2-3.9-2.2s-3.1.8-3.9 2.2l-4.5 7.3c-1.6 2.6-2.4 5.5-2.4 8.5v11.5c0 1.9-.5 3.9-1.3 5.6-3.5 6.9-12.8 21.8-18.1 30-.9 1.5-1 3.2-.2 4.7.8 1.6 2.3 2.5 4 2.5zM51 93.5c4.6-7.3 12.4-19.7 16.7-27.3v7.2c0 .8.7 1.5 1.5 1.5s1.5-.7 1.5-1.5V58.7c.1-.8.2-1.6.2-2.3V44.9c0-2.5.7-4.9 2-7l4.5-7.3c.4-.7 1.1-.8 1.4-.8.3 0 .9.1 1.4.8l4.5 7.3c1.3 2.1 2 4.5 2 7v11.5c0 .8.1 1.6.2 2.3v14.7c0 .8.7 1.5 1.5 1.5s1.5-.7 1.5-1.5v-7.2c4.2 7.7 12 20.1 16.7 27.3.5.7.2 1.4.1 1.7s-.6.9-1.5.9h-11v-3.2c0-.8-.7-1.5-1.5-1.5s-1.7.7-1.7 1.5v11.6h-4.4V92.9c0-.8-.7-1.5-1.5-1.5s-1.5.7-1.5 1.5v3.2h-9.8v-3.2c0-.8-.7-1.5-1.5-1.5s-1.5.7-1.5 1.5v11.6h-4.4V92.9c0-.8-.7-1.5-1.5-1.5s-1.5.7-1.5 1.5v3.2h-11c-.6 0-1.2-.3-1.5-.9-.1-.2-.4-.9.1-1.7z"/></svg>